<svg width="21" height="25" viewBox="0 0 21 25" fill="none" xmlns="http://www.w3.org/2000/svg">
<path fill-rule="evenodd" clip-rule="evenodd" d="M13.8563 3.56625C14.0048 3.01046 14.3039 2.50644 14.7205 2.10969C15.1371 1.71294 15.6551 1.43884 16.2175 1.31757C16.7798 1.1963 17.3648 1.23256 17.9079 1.42237C18.451 1.61217 18.9312 1.94816 19.2956 2.39333C19.66 2.8385 19.8945 3.3756 19.9733 3.94548C20.052 4.51536 19.972 5.09594 19.7421 5.62328C19.5121 6.15061 19.1411 6.60427 18.6698 6.93429C18.1986 7.26431 17.6454 7.4579 17.0712 7.49375C17.356 8.29861 17.501 9.14625 17.5 10V17.5H18.75C19.4375 17.5 20 18.0625 20 18.75C20 19.4375 19.4375 20 18.75 20H13.75V21.25C13.75 22.2446 13.3549 23.1984 12.6517 23.9017C11.9484 24.6049 10.9946 25 10 25C9.00544 25 8.05161 24.6049 7.34835 23.9017C6.64509 23.1984 6.25 22.2446 6.25 21.25V20H1.25C0.5625 20 0 19.4375 0 18.75C0 18.0625 0.5625 17.5 1.25 17.5H2.5V10C2.50023 8.22754 3.12798 6.51239 4.272 5.15856C5.41602 3.80473 7.00241 2.89965 8.75 2.60375V1.25C8.75 0.918479 8.8817 0.600537 9.11612 0.366116C9.35054 0.131696 9.66848 0 10 0C10.3315 0 10.6495 0.131696 10.8839 0.366116C11.1183 0.600537 11.25 0.918479 11.25 1.25V2.60375C12.1714 2.75835 13.0555 3.08486 13.8563 3.56625ZM10 22.5C10.3315 22.5 10.6495 22.3683 10.8839 22.1339C11.1183 21.8995 11.25 21.5815 11.25 21.25V20H8.75V21.25C8.75 21.5815 8.8817 21.8995 9.11612 22.1339C9.35054 22.3683 9.66848 22.5 10 22.5ZM5 17.5H15V10C15 8.67392 14.4732 7.40215 13.5355 6.46447C12.5979 5.52678 11.3261 5 10 5C8.67392 5 7.40215 5.52678 6.46447 6.46447C5.52678 7.40215 5 8.67392 5 10V17.5Z" fill="#606060"/>
</svg>